<svg id="Layer_1" data-name="Layer 1" xmlns="http://www.w3.org/2000/svg" viewBox="0 0 393.09 69.44"><defs><style>.cls-1{fill:#463c74;}</style></defs><path class="cls-1" d="M16.43,39.91H8.59V57.46H1.49V14.22H16.43c10.26,0,15.3,5.85,15.3,12.88C31.73,33.26,27.69,39.91,16.43,39.91Zm0-5.78c5.53,0,8-2.68,8-7S22,20,16.43,20H8.59V34.13Z"/><path class="cls-1" d="M38.51,11.42h7.1V27.16a13.58,13.58,0,0,1,10.63-4.54c7.66,0,13.63,5,13.63,14.62V57.46h-7V38.3c0-6.29-3.42-9.52-8.59-9.52S45.61,32,45.61,38.3V57.46h-7.1Z"/><path class="cls-1" d="M92.7,22.62a14.6,14.6,0,0,1,11.89,5.53v-5h7.15V57.46h-7.15v-5.1a14.78,14.78,0,0,1-12,5.66c-8.9,0-16-7.28-16-17.86S83.68,22.62,92.7,22.62Zm1.5,6.16c-5.29,0-10.39,4-10.39,11.38s5.1,11.7,10.39,11.7,10.39-4.17,10.39-11.57S99.55,28.78,94.2,28.78Z"/><path class="cls-1" d="M128.17,57.46h-7.09V23.18h7.09v5c2-3.42,5.41-5.53,10.26-5.53V30h-1.8c-5.23,0-8.46,2.18-8.46,9.45Z"/><path class="cls-1" d="M193.56,38.3c0-6.29-3.42-9.52-8.59-9.52s-8.65,3.23-8.65,9.52V57.46h-7V38.3c0-6.29-3.42-9.52-8.58-9.52s-8.65,3.23-8.65,9.52V57.46H145V23.18h7.09V27.1a13,13,0,0,1,10.14-4.48c5.41,0,10,2.3,12.32,6.78,2.12-4.17,7-6.78,11.95-6.78,8,0,14.12,5,14.12,14.62V57.46h-7Z"/><path class="cls-1" d="M223.42,22.62a14.6,14.6,0,0,1,11.89,5.53v-5h7.15V57.46h-7.15v-5.1a14.78,14.78,0,0,1-12,5.66c-8.9,0-16.05-7.28-16.05-17.86S214.4,22.62,223.42,22.62Zm1.5,6.16c-5.29,0-10.39,4-10.39,11.38s5.1,11.7,10.39,11.7,10.39-4.17,10.39-11.57S230.27,28.78,224.92,28.78Z"/><path class="cls-1" d="M267.16,57.89c-9.76,0-17.35-4.66-17.85-14.06h13c.25,3.3,2.18,4.42,4.42,4.42s3.86-1.12,3.86-3.17c-.07-7-21.34-3.74-21.16-19,0-8.59,7.16-13.19,16.43-13.19,10.08,0,16.67,4.92,17.11,13.63H269.72a3.78,3.78,0,0,0-4.05-4,2.91,2.91,0,0,0-3.23,3.12c0,6.53,21.09,4.41,21.09,18.47C283.53,51.86,277.55,57.89,267.16,57.89Z"/><path class="cls-1" d="M304.93,57.89c-10.33,0-17.73-6.78-17.73-17.92s7.28-17.85,17.73-17.85,17.61,6.66,17.61,17.48a21.14,21.14,0,0,1-.19,2.86H299.27c.25,4,2.43,5.67,5.16,5.67a4.56,4.56,0,0,0,4.36-2.74h13C320.17,52.54,313.64,57.89,304.93,57.89Zm-5.6-21.34h10.76c0-3.11-2.42-4.79-5.22-4.79S299.89,33.38,299.33,36.55Z"/><path class="cls-1" d="M339.71,57.46H327.52V22.55h12.19v6.16c2.61-3.79,6.6-6.47,11.26-6.47v13h-3.42c-5,0-7.84,1.61-7.84,7Z"/><path class="cls-1" d="M365.41,22.55,372.06,46l6.54-23.4h13l-12,34.91H364.41l-12-34.91Z"/></svg>