<?xml version="1.0" encoding="utf-8"?>
<!-- Generator: Adobe Illustrator 25.4.1, SVG Export Plug-In . SVG Version: 6.00 Build 0)  -->
<svg version="1.1" id="Layer_1" xmlns="http://www.w3.org/2000/svg" xmlns:xlink="http://www.w3.org/1999/xlink" x="0px" y="0px"
	 viewBox="0 0 16 16" style="enable-background:new 0 0 16 16;" xml:space="preserve">
<style type="text/css">
	.st0{opacity:0.1;fill-rule:evenodd;clip-rule:evenodd;}
	.st1{fill-rule:evenodd;clip-rule:evenodd;}
</style>
<circle class="st0" cx="8" cy="8" r="7.9"/>
<path class="st1" d="M10.3,7.5L8.1,5.4C8,5.2,8,4.9,8.1,4.7c0.2-0.2,0.5-0.2,0.7,0l3,3c0,0,0,0,0,0c0.2,0.2,0.2,0.5,0,0.7l-3,3
	c-0.2,0.2-0.5,0.2-0.7,0c-0.2-0.2-0.2-0.5,0-0.7l2.1-2.1H4.5C4.3,8.5,4,8.3,4,8c0-0.3,0.2-0.5,0.5-0.5H10.3z"/>
</svg>
