<svg xmlns="http://www.w3.org/2000/svg" width="19.253" height="14.667">
    <defs>
        <style>
            .cls-1{fill:#f2f2f2}.cls-2{fill:#f14336}.cls-3{fill:#d32e2a}
        </style>
    </defs>
    <g id="gmail" transform="translate(0 -60.983)">
        <g id="Group_11" data-name="Group 11" transform="translate(1.255 60.983)">
            <path id="Path_11" data-name="Path 11" class="cls-1" d="m50.36 122.808-1.229 12.342H34.369l-.99-12.1 8.371 4.687z" transform="translate(-33.379 -120.483)"/>
            <path id="Path_12" data-name="Path 12" class="cls-1" d="m54.5 60.983-8.193 7.7-8.193-7.7H54.5z" transform="translate(-37.936 -60.983)"/>
        </g>
        <path id="Path_13" data-name="Path 13" class="cls-2" d="M2.245 113.6v11.113H.908a.908.908 0 0 1-.908-.904v-11.842l1.467.04z" transform="translate(0 -49.067)"/>
        <path id="Path_14" data-name="Path 14" class="cls-3" d="M454.533 109.081v11.842a.908.908 0 0 1-.908.908h-1.337v-11.114l.74-1.749z" transform="translate(-435.28 -46.181)"/>
        <path id="Path_15" data-name="Path 15" class="cls-2" d="M19.253 61.891V62.9l-2.245 1.637-7.381 5.38-7.381-5.38L0 62.9v-1.009a.908.908 0 0 1 .908-.908h.526l8.193 5.972 8.193-5.972h.525a.908.908 0 0 1 .908.908z"/>
        <path id="Path_16" data-name="Path 16" class="cls-3" d="M2.245 113.6 0 113.256v-1.289z" transform="translate(0 -49.067)"/>
    </g>
</svg>
