<svg xmlns="http://www.w3.org/2000/svg" width="32.979" height="32.979">
    <path data-name="noun_avatar_2102861 (2)" d="m34.855 29.266-7.067-2.9a1 1 0 0 1-.63-.923V23.79a.938.938 0 0 1 .2-.587 13.911 13.911 0 0 0 2.9-8.465C30.253 9.512 26.932 6 21.989 6s-8.264 3.512-8.264 8.738a13.913 13.913 0 0 0 2.9 8.466.938.938 0 0 1 .2.587v1.652a1 1 0 0 1-.63.923l-7.067 2.9A5 5 0 0 0 6 33.9v2.75a1.333 1.333 0 0 0 1.332 1.332h29.314a1.333 1.333 0 0 0 1.332-1.332V33.9a5 5 0 0 0-3.123-4.634zm.459 6.048H8.665V33.9a2.343 2.343 0 0 1 1.471-2.166l7.067-2.9a3.655 3.655 0 0 0 2.284-3.388V23.79a3.61 3.61 0 0 0-.787-2.255 11.326 11.326 0 0 1-2.309-6.8c0-4.478 2.892-6.073 5.6-6.073s5.6 1.6 5.6 6.073a11.326 11.326 0 0 1-2.309 6.8 3.612 3.612 0 0 0-.787 2.255v1.652a3.655 3.655 0 0 0 2.284 3.388l7.067 2.9a2.343 2.343 0 0 1 1.468 2.17z" transform="translate(-5.5 -5.5)" style="fill:#463c74;stroke:#463c74"/>
</svg>
